<?xml version="1.0" standalone="no"?>
 <!DOCTYPE svg PUBLIC "-//W3C//DTD SVG 1.1//EN" 
 "http://www.w3.org/Graphics/SVG/1.1/DTD/svg11.dtd"> 
<svg xmlns="http://www.w3.org/2000/svg" version="1.1" 
    width="8.38962cm" height="8.66902cm" viewBox="0 0 33030 34130 ">
<title>SVG Picture created as turbidostat-B.Mask.svg date 2017/03/31 12:56:50 </title>
  <desc>Picture generated by PCBNEW </desc>
<g style="fill:#000000; fill-opacity:1;stroke:#000000; stroke-opacity:1;
stroke-linecap:round; stroke-linejoin:round; "
 transform="translate(0 0) scale(1 1)">
</g>
<g style="fill:#000000; fill-opacity:0.0; 
stroke:#000000; stroke-width:-0.000393701; stroke-opacity:1; 
stroke-linecap:round; stroke-linejoin:round;">
</g>
<g style="fill:#000000; fill-opacity:0.0; 
stroke:#000000; stroke-width:59.0551; stroke-opacity:1; 
stroke-linecap:round; stroke-linejoin:round;">
<path d="M421 4891
L421 2608
" />
<path d="M2390 4891
L421 4891
" />
<path d="M3177 5285
L2390 4891
" />
<path d="M3571 6072
L3177 5285
" />
<path d="M3177 6860
L3571 6072
" />
<path d="M2390 7253
L3177 6860
" />
<path d="M421 7253
L2390 7253
" />
<circle cx="16161.9" cy="17096.5" r="656.168" /> 
<path d="M15177 17096
L17146 17096
" />
<path d="M16161 16112
L16161 18080
" />
<path d="M10256 11190
L10256 23001
" />
<path d="M22067 23001
L22067 11190
" />
<path d="M10256 23001
L22067 23001
" />
<path d="M1713 32883
L420 31602
" />
<path d="M28051 32883
L1713 32883
" />
<path d="M1634 1348
L2028 1348
" />
<path d="M421 2608
L1634 1348
" />
<path d="M420 31602
L421 7253
" />
<path d="M22067 11190
L10256 11190
" />
<path d="M30689 32883
L28051 32883
" />
<path d="M31949 31624
L30689 32883
" />
<path d="M31949 2529
L31949 31624
" />
<path d="M30768 1348
L31949 2529
" />
<path d="M30374 1348
L30768 1348
" />
<path d="M2028 1348
L30374 1348
" />
</g>
<g style="fill:#000000; fill-opacity:0.0; 
stroke:#000000; stroke-width:0; stroke-opacity:1; 
stroke-linecap:round; stroke-linejoin:round;">
</g>
<g style="fill:#000000; fill-opacity:1.0; 
stroke:#000000; stroke-width:0; stroke-opacity:1; 
stroke-linecap:round; stroke-linejoin:round;">
<polyline style="fill-rule:evenodd;"
points="4987,28200
4029,28200
4029,27362
4987,27362
4987,28200
" /> 
</g>
<g style="fill:#000000; fill-opacity:1.0; 
stroke:#000000; stroke-width:837.48; stroke-opacity:1; 
stroke-linecap:round; stroke-linejoin:round;">
</g>
<g style="fill:#000000; fill-opacity:0.0; 
stroke:#000000; stroke-width:837.48; stroke-opacity:1; 
stroke-linecap:round; stroke-linejoin:round;">
<path d="M4448 26781
L4568 26781
" />
<path d="M4448 25781
L4568 25781
" />
</g>
<g style="fill:#000000; fill-opacity:0.0; 
stroke:#000000; stroke-width:0; stroke-opacity:1; 
stroke-linecap:round; stroke-linejoin:round;">
</g>
<g style="fill:#000000; fill-opacity:1.0; 
stroke:#000000; stroke-width:0; stroke-opacity:1; 
stroke-linecap:round; stroke-linejoin:round;">
<polyline style="fill-rule:evenodd;"
points="29210,3724
29210,4781
28432,4781
28432,3724
29210,3724
" /> 
</g>
<g style="fill:#000000; fill-opacity:1.0; 
stroke:#000000; stroke-width:777.48; stroke-opacity:1; 
stroke-linecap:round; stroke-linejoin:round;">
</g>
<g style="fill:#000000; fill-opacity:0.0; 
stroke:#000000; stroke-width:777.48; stroke-opacity:1; 
stroke-linecap:round; stroke-linejoin:round;">
<path d="M27821 4392
L27821 4112
" />
<path d="M26821 4392
L26821 4112
" />
<path d="M25821 4392
L25821 4112
" />
<path d="M24821 4392
L24821 4112
" />
<path d="M23821 4392
L23821 4112
" />
<path d="M22821 4392
L22821 4112
" />
<path d="M21821 4392
L21821 4112
" />
<path d="M20821 4392
L20821 4112
" />
<path d="M19821 4392
L19821 4112
" />
<path d="M18821 4392
L18821 4112
" />
<path d="M17821 4392
L17821 4112
" />
<path d="M16821 4392
L16821 4112
" />
<path d="M15821 4392
L15821 4112
" />
<path d="M14821 4392
L14821 4112
" />
<path d="M14821 10392
L14821 10112
" />
<path d="M15821 10392
L15821 10112
" />
<path d="M16821 10392
L16821 10112
" />
<path d="M17821 10392
L17821 10112
" />
<path d="M18821 10392
L18821 10112
" />
<path d="M19821 10392
L19821 10112
" />
<path d="M20821 10392
L20821 10112
" />
<path d="M21821 10392
L21821 10112
" />
<path d="M22821 10392
L22821 10112
" />
<path d="M23821 10392
L23821 10112
" />
<path d="M24821 10392
L24821 10112
" />
<path d="M25821 10392
L25821 10112
" />
<path d="M26821 10392
L26821 10112
" />
<path d="M27821 10392
L27821 10112
" />
<path d="M28821 10392
L28821 10112
" />
</g>
<g style="fill:#000000; fill-opacity:1.0; 
stroke:#000000; stroke-width:0; stroke-opacity:1; 
stroke-linecap:round; stroke-linejoin:round;">
<circle cx="3547.71" cy="23356.3" r="472.441" /> 
</g>
<g style="fill:#000000; fill-opacity:1.0; 
stroke:#000000; stroke-width:39.3701; stroke-opacity:1; 
stroke-linecap:round; stroke-linejoin:round;">
</g>
<g style="fill:#000000; fill-opacity:1.0; 
stroke:#000000; stroke-width:0; stroke-opacity:1; 
stroke-linecap:round; stroke-linejoin:round;">
<circle cx="5547.71" cy="23356.3" r="472.441" /> 
</g>
<g style="fill:#000000; fill-opacity:1.0; 
stroke:#000000; stroke-width:39.3701; stroke-opacity:1; 
stroke-linecap:round; stroke-linejoin:round;">
</g>
<g style="fill:#000000; fill-opacity:1.0; 
stroke:#000000; stroke-width:0; stroke-opacity:1; 
stroke-linecap:round; stroke-linejoin:round;">
<circle cx="8327.24" cy="30702.8" r="433.071" /> 
</g>
<g style="fill:#000000; fill-opacity:1.0; 
stroke:#000000; stroke-width:39.3701; stroke-opacity:1; 
stroke-linecap:round; stroke-linejoin:round;">
</g>
<g style="fill:#000000; fill-opacity:1.0; 
stroke:#000000; stroke-width:0; stroke-opacity:1; 
stroke-linecap:round; stroke-linejoin:round;">
<circle cx="8327.24" cy="29702.8" r="433.071" /> 
</g>
<g style="fill:#000000; fill-opacity:1.0; 
stroke:#000000; stroke-width:39.3701; stroke-opacity:1; 
stroke-linecap:round; stroke-linejoin:round;">
</g>
<g style="fill:#000000; fill-opacity:1.0; 
stroke:#000000; stroke-width:0; stroke-opacity:1; 
stroke-linecap:round; stroke-linejoin:round;">
<circle cx="28802" cy="14339.4" r="1023.74" /> 
</g>
<g style="fill:#000000; fill-opacity:1.0; 
stroke:#000000; stroke-width:39.3701; stroke-opacity:1; 
stroke-linecap:round; stroke-linejoin:round;">
</g>
<g style="fill:#000000; fill-opacity:1.0; 
stroke:#000000; stroke-width:0; stroke-opacity:1; 
stroke-linecap:round; stroke-linejoin:round;">
<polyline style="fill-rule:evenodd;"
points="27425,13315
27425,15363
25378,15363
25378,13315
27425,13315
" /> 
<circle cx="27902" cy="12339.4" r="1023.74" /> 
</g>
<g style="fill:#000000; fill-opacity:1.0; 
stroke:#000000; stroke-width:39.3701; stroke-opacity:1; 
stroke-linecap:round; stroke-linejoin:round;">
</g>
<g style="fill:#000000; fill-opacity:1.0; 
stroke:#000000; stroke-width:0; stroke-opacity:1; 
stroke-linecap:round; stroke-linejoin:round;">
<polyline style="fill-rule:evenodd;"
points="9554,18515
8596,18515
8596,17677
9554,17677
9554,18515
" /> 
</g>
<g style="fill:#000000; fill-opacity:1.0; 
stroke:#000000; stroke-width:837.48; stroke-opacity:1; 
stroke-linecap:round; stroke-linejoin:round;">
</g>
<g style="fill:#000000; fill-opacity:0.0; 
stroke:#000000; stroke-width:837.48; stroke-opacity:1; 
stroke-linecap:round; stroke-linejoin:round;">
<path d="M9015 17096
L9135 17096
" />
<path d="M9015 16096
L9135 16096
" />
</g>
<g style="fill:#000000; fill-opacity:0.0; 
stroke:#000000; stroke-width:0; stroke-opacity:1; 
stroke-linecap:round; stroke-linejoin:round;">
</g>
<g style="fill:#000000; fill-opacity:1.0; 
stroke:#000000; stroke-width:0; stroke-opacity:1; 
stroke-linecap:round; stroke-linejoin:round;">
<polyline style="fill-rule:evenodd;"
points="6075,20587
6075,21544
5237,21544
5237,20587
6075,20587
" /> 
</g>
<g style="fill:#000000; fill-opacity:1.0; 
stroke:#000000; stroke-width:837.48; stroke-opacity:1; 
stroke-linecap:round; stroke-linejoin:round;">
</g>
<g style="fill:#000000; fill-opacity:0.0; 
stroke:#000000; stroke-width:837.48; stroke-opacity:1; 
stroke-linecap:round; stroke-linejoin:round;">
<path d="M4656 21126
L4656 21006
" />
<path d="M3656 21126
L3656 21006
" />
</g>
<g style="fill:#000000; fill-opacity:0.0; 
stroke:#000000; stroke-width:0; stroke-opacity:1; 
stroke-linecap:round; stroke-linejoin:round;">
</g>
<g style="fill:#000000; fill-opacity:1.0; 
stroke:#000000; stroke-width:0; stroke-opacity:1; 
stroke-linecap:round; stroke-linejoin:round;">
<polyline style="fill-rule:evenodd;"
points="6075,17587
6075,18544
5237,18544
5237,17587
6075,17587
" /> 
</g>
<g style="fill:#000000; fill-opacity:1.0; 
stroke:#000000; stroke-width:837.48; stroke-opacity:1; 
stroke-linecap:round; stroke-linejoin:round;">
</g>
<g style="fill:#000000; fill-opacity:0.0; 
stroke:#000000; stroke-width:837.48; stroke-opacity:1; 
stroke-linecap:round; stroke-linejoin:round;">
<path d="M4656 18126
L4656 18006
" />
<path d="M3656 18126
L3656 18006
" />
</g>
<g style="fill:#000000; fill-opacity:0.0; 
stroke:#000000; stroke-width:0; stroke-opacity:1; 
stroke-linecap:round; stroke-linejoin:round;">
</g>
<g style="fill:#000000; fill-opacity:1.0; 
stroke:#000000; stroke-width:0; stroke-opacity:1; 
stroke-linecap:round; stroke-linejoin:round;">
<polyline style="fill-rule:evenodd;"
points="16805,30224
16805,31181
15848,31181
15848,30224
16805,30224
" /> 
</g>
<g style="fill:#000000; fill-opacity:1.0; 
stroke:#000000; stroke-width:957.48; stroke-opacity:1; 
stroke-linecap:round; stroke-linejoin:round;">
</g>
<g style="fill:#000000; fill-opacity:0.0; 
stroke:#000000; stroke-width:957.48; stroke-opacity:1; 
stroke-linecap:round; stroke-linejoin:round;">
<path d="M15327 30702
L15327 30702
" />
</g>
<g style="fill:#000000; fill-opacity:0.0; 
stroke:#000000; stroke-width:0; stroke-opacity:1; 
stroke-linecap:round; stroke-linejoin:round;">
</g>
<g style="fill:#000000; fill-opacity:1.0; 
stroke:#000000; stroke-width:0; stroke-opacity:1; 
stroke-linecap:round; stroke-linejoin:round;">
<polyline style="fill-rule:evenodd;"
points="16805,27224
16805,28181
15848,28181
15848,27224
16805,27224
" /> 
</g>
<g style="fill:#000000; fill-opacity:1.0; 
stroke:#000000; stroke-width:957.48; stroke-opacity:1; 
stroke-linecap:round; stroke-linejoin:round;">
</g>
<g style="fill:#000000; fill-opacity:0.0; 
stroke:#000000; stroke-width:957.48; stroke-opacity:1; 
stroke-linecap:round; stroke-linejoin:round;">
<path d="M15327 27702
L15327 27702
" />
</g>
<g style="fill:#000000; fill-opacity:0.0; 
stroke:#000000; stroke-width:0; stroke-opacity:1; 
stroke-linecap:round; stroke-linejoin:round;">
</g>
<g style="fill:#000000; fill-opacity:1.0; 
stroke:#000000; stroke-width:0; stroke-opacity:1; 
stroke-linecap:round; stroke-linejoin:round;">
<polyline style="fill-rule:evenodd;"
points="11805,30224
11805,31181
10848,31181
10848,30224
11805,30224
" /> 
</g>
<g style="fill:#000000; fill-opacity:1.0; 
stroke:#000000; stroke-width:957.48; stroke-opacity:1; 
stroke-linecap:round; stroke-linejoin:round;">
</g>
<g style="fill:#000000; fill-opacity:0.0; 
stroke:#000000; stroke-width:957.48; stroke-opacity:1; 
stroke-linecap:round; stroke-linejoin:round;">
<path d="M10327 30702
L10327 30702
" />
</g>
<g style="fill:#000000; fill-opacity:0.0; 
stroke:#000000; stroke-width:0; stroke-opacity:1; 
stroke-linecap:round; stroke-linejoin:round;">
</g>
<g style="fill:#000000; fill-opacity:1.0; 
stroke:#000000; stroke-width:0; stroke-opacity:1; 
stroke-linecap:round; stroke-linejoin:round;">
<polyline style="fill-rule:evenodd;"
points="11805,27224
11805,28181
10848,28181
10848,27224
11805,27224
" /> 
</g>
<g style="fill:#000000; fill-opacity:1.0; 
stroke:#000000; stroke-width:957.48; stroke-opacity:1; 
stroke-linecap:round; stroke-linejoin:round;">
</g>
<g style="fill:#000000; fill-opacity:0.0; 
stroke:#000000; stroke-width:957.48; stroke-opacity:1; 
stroke-linecap:round; stroke-linejoin:round;">
<path d="M10327 27702
L10327 27702
" />
</g>
<g style="fill:#000000; fill-opacity:1.0; 
stroke:#000000; stroke-width:0; stroke-opacity:1; 
stroke-linecap:round; stroke-linejoin:round;">
<circle cx="2224.88" cy="25360.2" r="472.441" /> 
</g>
<g style="fill:#000000; fill-opacity:1.0; 
stroke:#000000; stroke-width:39.3701; stroke-opacity:1; 
stroke-linecap:round; stroke-linejoin:round;">
</g>
<g style="fill:#000000; fill-opacity:1.0; 
stroke:#000000; stroke-width:0; stroke-opacity:1; 
stroke-linecap:round; stroke-linejoin:round;">
<circle cx="2224.88" cy="28360.2" r="472.441" /> 
</g>
<g style="fill:#000000; fill-opacity:1.0; 
stroke:#000000; stroke-width:39.3701; stroke-opacity:1; 
stroke-linecap:round; stroke-linejoin:round;">
</g>
<g style="fill:#000000; fill-opacity:1.0; 
stroke:#000000; stroke-width:0; stroke-opacity:1; 
stroke-linecap:round; stroke-linejoin:round;">
<circle cx="13366.6" cy="28982.3" r="472.441" /> 
</g>
<g style="fill:#000000; fill-opacity:1.0; 
stroke:#000000; stroke-width:39.3701; stroke-opacity:1; 
stroke-linecap:round; stroke-linejoin:round;">
</g>
<g style="fill:#000000; fill-opacity:1.0; 
stroke:#000000; stroke-width:0; stroke-opacity:1; 
stroke-linecap:round; stroke-linejoin:round;">
<circle cx="13366.6" cy="31982.3" r="472.441" /> 
</g>
<g style="fill:#000000; fill-opacity:1.0; 
stroke:#000000; stroke-width:39.3701; stroke-opacity:1; 
stroke-linecap:round; stroke-linejoin:round;">
</g>
<g style="fill:#000000; fill-opacity:1.0; 
stroke:#000000; stroke-width:0; stroke-opacity:1; 
stroke-linecap:round; stroke-linejoin:round;">
<polyline style="fill-rule:evenodd;"
points="22245,24216
22954,24216
22954,24610
22245,24610
22245,24216
" /> 
<polyline style="fill-rule:evenodd;"
points="24345,24216
25054,24216
25054,24610
24345,24610
24345,24216
" /> 
<polyline style="fill-rule:evenodd;"
points="22245,24716
22954,24716
22954,25110
22245,25110
22245,24716
" /> 
<polyline style="fill-rule:evenodd;"
points="22245,25216
22954,25216
22954,25610
22245,25610
22245,25216
" /> 
<polyline style="fill-rule:evenodd;"
points="22245,25716
22954,25716
22954,26110
22245,26110
22245,25716
" /> 
<polyline style="fill-rule:evenodd;"
points="24345,24716
25054,24716
25054,25110
24345,25110
24345,24716
" /> 
<polyline style="fill-rule:evenodd;"
points="24345,25216
25054,25216
25054,25610
24345,25610
24345,25216
" /> 
<polyline style="fill-rule:evenodd;"
points="24345,25716
25054,25716
25054,26110
24345,26110
24345,25716
" /> 
<polyline style="fill-rule:evenodd;"
points="22245,28716
22954,28716
22954,29110
22245,29110
22245,28716
" /> 
<polyline style="fill-rule:evenodd;"
points="24345,28716
25054,28716
25054,29110
24345,29110
24345,28716
" /> 
<polyline style="fill-rule:evenodd;"
points="22245,29216
22954,29216
22954,29610
22245,29610
22245,29216
" /> 
<polyline style="fill-rule:evenodd;"
points="22245,29716
22954,29716
22954,30110
22245,30110
22245,29716
" /> 
<polyline style="fill-rule:evenodd;"
points="22245,30216
22954,30216
22954,30610
22245,30610
22245,30216
" /> 
<polyline style="fill-rule:evenodd;"
points="24345,29216
25054,29216
25054,29610
24345,29610
24345,29216
" /> 
<polyline style="fill-rule:evenodd;"
points="24345,29716
25054,29716
25054,30110
24345,30110
24345,29716
" /> 
<polyline style="fill-rule:evenodd;"
points="24345,30216
25054,30216
25054,30610
24345,30610
24345,30216
" /> 
<circle cx="1988.66" cy="31269.7" r="1062.99" /> 
</g>
<g style="fill:#000000; fill-opacity:1.0; 
stroke:#000000; stroke-width:39.3701; stroke-opacity:1; 
stroke-linecap:round; stroke-linejoin:round;">
</g>
<g style="fill:#000000; fill-opacity:1.0; 
stroke:#000000; stroke-width:0; stroke-opacity:1; 
stroke-linecap:round; stroke-linejoin:round;">
<circle cx="1988.66" cy="2923.23" r="1062.99" /> 
</g>
<g style="fill:#000000; fill-opacity:1.0; 
stroke:#000000; stroke-width:39.3701; stroke-opacity:1; 
stroke-linecap:round; stroke-linejoin:round;">
</g>
<g style="fill:#000000; fill-opacity:1.0; 
stroke:#000000; stroke-width:0; stroke-opacity:1; 
stroke-linecap:round; stroke-linejoin:round;">
<circle cx="30335.1" cy="31269.7" r="1062.99" /> 
</g>
<g style="fill:#000000; fill-opacity:1.0; 
stroke:#000000; stroke-width:39.3701; stroke-opacity:1; 
stroke-linecap:round; stroke-linejoin:round;">
</g>
<g style="fill:#000000; fill-opacity:1.0; 
stroke:#000000; stroke-width:0; stroke-opacity:1; 
stroke-linecap:round; stroke-linejoin:round;">
<circle cx="30335.1" cy="2923.23" r="1062.99" /> 
</g>
<g style="fill:#000000; fill-opacity:1.0; 
stroke:#000000; stroke-width:39.3701; stroke-opacity:1; 
stroke-linecap:round; stroke-linejoin:round;">
</g> 
</svg>
