<?xml version="1.0" standalone="no"?>
 <!DOCTYPE svg PUBLIC "-//W3C//DTD SVG 1.1//EN" 
 "http://www.w3.org/Graphics/SVG/1.1/DTD/svg11.dtd"> 
<svg xmlns="http://www.w3.org/2000/svg" version="1.1" 
    width="8.38962cm" height="8.66902cm" viewBox="0 0 33030 34130 ">
<title>SVG Picture created as turbidostat-F.Cu.svg date 2017/03/31 12:54:35 </title>
  <desc>Picture generated by PCBNEW </desc>
<g style="fill:#000000; fill-opacity:1;stroke:#000000; stroke-opacity:1;
stroke-linecap:round; stroke-linejoin:round; "
 transform="translate(0 0) scale(1 1)">
</g>
<g style="fill:#000000; fill-opacity:0.0; 
stroke:#000000; stroke-width:-0.000393701; stroke-opacity:1; 
stroke-linecap:round; stroke-linejoin:round;">
</g>
<g style="fill:#000000; fill-opacity:0.0; 
stroke:#000000; stroke-width:59.0551; stroke-opacity:1; 
stroke-linecap:round; stroke-linejoin:round;">
<path d="M32608 4891
L32608 2608
" />
<path d="M30639 4891
L32608 4891
" />
<path d="M29852 5285
L30639 4891
" />
<path d="M29458 6072
L29852 5285
" />
<path d="M29852 6860
L29458 6072
" />
<path d="M30639 7253
L29852 6860
" />
<path d="M32608 7253
L30639 7253
" />
<circle cx="16868.1" cy="17096.5" r="656.168" /> 
<path d="M17852 17096
L15883 17096
" />
<path d="M16868 16112
L16868 18080
" />
<path d="M22773 11190
L22773 23001
" />
<path d="M10962 23001
L10962 11190
" />
<path d="M22773 23001
L10962 23001
" />
<path d="M31316 32883
L32609 31602
" />
<path d="M4978 32883
L31316 32883
" />
<path d="M31395 1348
L31001 1348
" />
<path d="M32608 2608
L31395 1348
" />
<path d="M32609 31602
L32608 7253
" />
<path d="M10962 11190
L22773 11190
" />
<path d="M2340 32883
L4978 32883
" />
<path d="M1080 31624
L2340 32883
" />
<path d="M1080 2529
L1080 31624
" />
<path d="M2261 1348
L1080 2529
" />
<path d="M2655 1348
L2261 1348
" />
<path d="M31001 1348
L2655 1348
" />
</g>
<g style="fill:#000000; fill-opacity:0.0; 
stroke:#000000; stroke-width:0; stroke-opacity:1; 
stroke-linecap:round; stroke-linejoin:round;">
</g>
<g style="fill:#000000; fill-opacity:1.0; 
stroke:#000000; stroke-width:0; stroke-opacity:1; 
stroke-linecap:round; stroke-linejoin:round;">
<polyline style="fill-rule:evenodd;"
points="28121,28121
28921,28121
28921,27441
28121,27441
28121,28121
" /> 
</g>
<g style="fill:#000000; fill-opacity:1.0; 
stroke:#000000; stroke-width:680; stroke-opacity:1; 
stroke-linecap:round; stroke-linejoin:round;">
</g>
<g style="fill:#000000; fill-opacity:0.0; 
stroke:#000000; stroke-width:680; stroke-opacity:1; 
stroke-linecap:round; stroke-linejoin:round;">
<path d="M28581 26781
L28461 26781
" />
<path d="M28581 25781
L28461 25781
" />
</g>
<g style="fill:#000000; fill-opacity:0.0; 
stroke:#000000; stroke-width:0; stroke-opacity:1; 
stroke-linecap:round; stroke-linejoin:round;">
</g>
<g style="fill:#000000; fill-opacity:1.0; 
stroke:#000000; stroke-width:0; stroke-opacity:1; 
stroke-linecap:round; stroke-linejoin:round;">
<polyline style="fill-rule:evenodd;"
points="3898,3802
3898,4702
4518,4702
4518,3802
3898,3802
" /> 
</g>
<g style="fill:#000000; fill-opacity:1.0; 
stroke:#000000; stroke-width:620; stroke-opacity:1; 
stroke-linecap:round; stroke-linejoin:round;">
</g>
<g style="fill:#000000; fill-opacity:0.0; 
stroke:#000000; stroke-width:620; stroke-opacity:1; 
stroke-linecap:round; stroke-linejoin:round;">
<path d="M5208 4392
L5208 4112
" />
<path d="M6208 4392
L6208 4112
" />
<path d="M7208 4392
L7208 4112
" />
<path d="M8208 4392
L8208 4112
" />
<path d="M9208 4392
L9208 4112
" />
<path d="M10208 4392
L10208 4112
" />
<path d="M11208 4392
L11208 4112
" />
<path d="M12208 4392
L12208 4112
" />
<path d="M13208 4392
L13208 4112
" />
<path d="M14208 4392
L14208 4112
" />
<path d="M15208 4392
L15208 4112
" />
<path d="M16208 4392
L16208 4112
" />
<path d="M17208 4392
L17208 4112
" />
<path d="M18208 4392
L18208 4112
" />
<path d="M18208 10392
L18208 10112
" />
<path d="M17208 10392
L17208 10112
" />
<path d="M16208 10392
L16208 10112
" />
<path d="M15208 10392
L15208 10112
" />
<path d="M14208 10392
L14208 10112
" />
<path d="M13208 10392
L13208 10112
" />
<path d="M12208 10392
L12208 10112
" />
<path d="M11208 10392
L11208 10112
" />
<path d="M10208 10392
L10208 10112
" />
<path d="M9208 10392
L9208 10112
" />
<path d="M8208 10392
L8208 10112
" />
<path d="M7208 10392
L7208 10112
" />
<path d="M6208 10392
L6208 10112
" />
<path d="M5208 10392
L5208 10112
" />
<path d="M4208 10392
L4208 10112
" />
</g>
<g style="fill:#000000; fill-opacity:1.0; 
stroke:#000000; stroke-width:0; stroke-opacity:1; 
stroke-linecap:round; stroke-linejoin:round;">
<circle cx="29482.3" cy="23356.3" r="393.701" /> 
</g>
<g style="fill:#000000; fill-opacity:1.0; 
stroke:#000000; stroke-width:39.3701; stroke-opacity:1; 
stroke-linecap:round; stroke-linejoin:round;">
</g>
<g style="fill:#000000; fill-opacity:1.0; 
stroke:#000000; stroke-width:0; stroke-opacity:1; 
stroke-linecap:round; stroke-linejoin:round;">
<circle cx="27482.3" cy="23356.3" r="393.701" /> 
</g>
<g style="fill:#000000; fill-opacity:1.0; 
stroke:#000000; stroke-width:39.3701; stroke-opacity:1; 
stroke-linecap:round; stroke-linejoin:round;">
</g>
<g style="fill:#000000; fill-opacity:1.0; 
stroke:#000000; stroke-width:0; stroke-opacity:1; 
stroke-linecap:round; stroke-linejoin:round;">
<circle cx="24702.8" cy="30702.8" r="354.331" /> 
</g>
<g style="fill:#000000; fill-opacity:1.0; 
stroke:#000000; stroke-width:39.3701; stroke-opacity:1; 
stroke-linecap:round; stroke-linejoin:round;">
</g>
<g style="fill:#000000; fill-opacity:1.0; 
stroke:#000000; stroke-width:0; stroke-opacity:1; 
stroke-linecap:round; stroke-linejoin:round;">
<circle cx="24702.8" cy="29702.8" r="354.331" /> 
</g>
<g style="fill:#000000; fill-opacity:1.0; 
stroke:#000000; stroke-width:39.3701; stroke-opacity:1; 
stroke-linecap:round; stroke-linejoin:round;">
</g>
<g style="fill:#000000; fill-opacity:1.0; 
stroke:#000000; stroke-width:0; stroke-opacity:1; 
stroke-linecap:round; stroke-linejoin:round;">
<circle cx="4227.96" cy="14339.4" r="945" /> 
</g>
<g style="fill:#000000; fill-opacity:1.0; 
stroke:#000000; stroke-width:39.3701; stroke-opacity:1; 
stroke-linecap:round; stroke-linejoin:round;">
</g>
<g style="fill:#000000; fill-opacity:1.0; 
stroke:#000000; stroke-width:0; stroke-opacity:1; 
stroke-linecap:round; stroke-linejoin:round;">
<polyline style="fill-rule:evenodd;"
points="5682,13394
5682,15284
7572,15284
7572,13394
5682,13394
" /> 
<circle cx="5127.96" cy="12339.4" r="945" /> 
</g>
<g style="fill:#000000; fill-opacity:1.0; 
stroke:#000000; stroke-width:39.3701; stroke-opacity:1; 
stroke-linecap:round; stroke-linejoin:round;">
</g>
<g style="fill:#000000; fill-opacity:1.0; 
stroke:#000000; stroke-width:0; stroke-opacity:1; 
stroke-linecap:round; stroke-linejoin:round;">
<polyline style="fill-rule:evenodd;"
points="23554,18436
24354,18436
24354,17756
23554,17756
23554,18436
" /> 
</g>
<g style="fill:#000000; fill-opacity:1.0; 
stroke:#000000; stroke-width:680; stroke-opacity:1; 
stroke-linecap:round; stroke-linejoin:round;">
</g>
<g style="fill:#000000; fill-opacity:0.0; 
stroke:#000000; stroke-width:680; stroke-opacity:1; 
stroke-linecap:round; stroke-linejoin:round;">
<path d="M24014 17096
L23894 17096
" />
<path d="M24014 16096
L23894 16096
" />
</g>
<g style="fill:#000000; fill-opacity:0.0; 
stroke:#000000; stroke-width:0; stroke-opacity:1; 
stroke-linecap:round; stroke-linejoin:round;">
</g>
<g style="fill:#000000; fill-opacity:1.0; 
stroke:#000000; stroke-width:0; stroke-opacity:1; 
stroke-linecap:round; stroke-linejoin:round;">
<polyline style="fill-rule:evenodd;"
points="27033,20666
27033,21466
27713,21466
27713,20666
27033,20666
" /> 
</g>
<g style="fill:#000000; fill-opacity:1.0; 
stroke:#000000; stroke-width:680; stroke-opacity:1; 
stroke-linecap:round; stroke-linejoin:round;">
</g>
<g style="fill:#000000; fill-opacity:0.0; 
stroke:#000000; stroke-width:680; stroke-opacity:1; 
stroke-linecap:round; stroke-linejoin:round;">
<path d="M28373 21126
L28373 21006
" />
<path d="M29373 21126
L29373 21006
" />
</g>
<g style="fill:#000000; fill-opacity:0.0; 
stroke:#000000; stroke-width:0; stroke-opacity:1; 
stroke-linecap:round; stroke-linejoin:round;">
</g>
<g style="fill:#000000; fill-opacity:1.0; 
stroke:#000000; stroke-width:0; stroke-opacity:1; 
stroke-linecap:round; stroke-linejoin:round;">
<polyline style="fill-rule:evenodd;"
points="27033,17666
27033,18466
27713,18466
27713,17666
27033,17666
" /> 
</g>
<g style="fill:#000000; fill-opacity:1.0; 
stroke:#000000; stroke-width:680; stroke-opacity:1; 
stroke-linecap:round; stroke-linejoin:round;">
</g>
<g style="fill:#000000; fill-opacity:0.0; 
stroke:#000000; stroke-width:680; stroke-opacity:1; 
stroke-linecap:round; stroke-linejoin:round;">
<path d="M28373 18126
L28373 18006
" />
<path d="M29373 18126
L29373 18006
" />
</g>
<g style="fill:#000000; fill-opacity:0.0; 
stroke:#000000; stroke-width:0; stroke-opacity:1; 
stroke-linecap:round; stroke-linejoin:round;">
</g>
<g style="fill:#000000; fill-opacity:1.0; 
stroke:#000000; stroke-width:0; stroke-opacity:1; 
stroke-linecap:round; stroke-linejoin:round;">
<polyline style="fill-rule:evenodd;"
points="16302,30302
16302,31102
17102,31102
17102,30302
16302,30302
" /> 
</g>
<g style="fill:#000000; fill-opacity:1.0; 
stroke:#000000; stroke-width:800; stroke-opacity:1; 
stroke-linecap:round; stroke-linejoin:round;">
</g>
<g style="fill:#000000; fill-opacity:0.0; 
stroke:#000000; stroke-width:800; stroke-opacity:1; 
stroke-linecap:round; stroke-linejoin:round;">
<path d="M17702 30702
L17702 30702
" />
</g>
<g style="fill:#000000; fill-opacity:0.0; 
stroke:#000000; stroke-width:0; stroke-opacity:1; 
stroke-linecap:round; stroke-linejoin:round;">
</g>
<g style="fill:#000000; fill-opacity:1.0; 
stroke:#000000; stroke-width:0; stroke-opacity:1; 
stroke-linecap:round; stroke-linejoin:round;">
<polyline style="fill-rule:evenodd;"
points="16302,27302
16302,28102
17102,28102
17102,27302
16302,27302
" /> 
</g>
<g style="fill:#000000; fill-opacity:1.0; 
stroke:#000000; stroke-width:800; stroke-opacity:1; 
stroke-linecap:round; stroke-linejoin:round;">
</g>
<g style="fill:#000000; fill-opacity:0.0; 
stroke:#000000; stroke-width:800; stroke-opacity:1; 
stroke-linecap:round; stroke-linejoin:round;">
<path d="M17702 27702
L17702 27702
" />
</g>
<g style="fill:#000000; fill-opacity:0.0; 
stroke:#000000; stroke-width:0; stroke-opacity:1; 
stroke-linecap:round; stroke-linejoin:round;">
</g>
<g style="fill:#000000; fill-opacity:1.0; 
stroke:#000000; stroke-width:0; stroke-opacity:1; 
stroke-linecap:round; stroke-linejoin:round;">
<polyline style="fill-rule:evenodd;"
points="21302,30302
21302,31102
22102,31102
22102,30302
21302,30302
" /> 
</g>
<g style="fill:#000000; fill-opacity:1.0; 
stroke:#000000; stroke-width:800; stroke-opacity:1; 
stroke-linecap:round; stroke-linejoin:round;">
</g>
<g style="fill:#000000; fill-opacity:0.0; 
stroke:#000000; stroke-width:800; stroke-opacity:1; 
stroke-linecap:round; stroke-linejoin:round;">
<path d="M22702 30702
L22702 30702
" />
</g>
<g style="fill:#000000; fill-opacity:0.0; 
stroke:#000000; stroke-width:0; stroke-opacity:1; 
stroke-linecap:round; stroke-linejoin:round;">
</g>
<g style="fill:#000000; fill-opacity:1.0; 
stroke:#000000; stroke-width:0; stroke-opacity:1; 
stroke-linecap:round; stroke-linejoin:round;">
<polyline style="fill-rule:evenodd;"
points="21302,27302
21302,28102
22102,28102
22102,27302
21302,27302
" /> 
</g>
<g style="fill:#000000; fill-opacity:1.0; 
stroke:#000000; stroke-width:800; stroke-opacity:1; 
stroke-linecap:round; stroke-linejoin:round;">
</g>
<g style="fill:#000000; fill-opacity:0.0; 
stroke:#000000; stroke-width:800; stroke-opacity:1; 
stroke-linecap:round; stroke-linejoin:round;">
<path d="M22702 27702
L22702 27702
" />
</g>
<g style="fill:#000000; fill-opacity:1.0; 
stroke:#000000; stroke-width:0; stroke-opacity:1; 
stroke-linecap:round; stroke-linejoin:round;">
<circle cx="30805.1" cy="25360.2" r="393.701" /> 
</g>
<g style="fill:#000000; fill-opacity:1.0; 
stroke:#000000; stroke-width:39.3701; stroke-opacity:1; 
stroke-linecap:round; stroke-linejoin:round;">
</g>
<g style="fill:#000000; fill-opacity:1.0; 
stroke:#000000; stroke-width:0; stroke-opacity:1; 
stroke-linecap:round; stroke-linejoin:round;">
<circle cx="30805.1" cy="28360.2" r="393.701" /> 
</g>
<g style="fill:#000000; fill-opacity:1.0; 
stroke:#000000; stroke-width:39.3701; stroke-opacity:1; 
stroke-linecap:round; stroke-linejoin:round;">
</g>
<g style="fill:#000000; fill-opacity:1.0; 
stroke:#000000; stroke-width:0; stroke-opacity:1; 
stroke-linecap:round; stroke-linejoin:round;">
<circle cx="19663.4" cy="28982.3" r="393.701" /> 
</g>
<g style="fill:#000000; fill-opacity:1.0; 
stroke:#000000; stroke-width:39.3701; stroke-opacity:1; 
stroke-linecap:round; stroke-linejoin:round;">
</g>
<g style="fill:#000000; fill-opacity:1.0; 
stroke:#000000; stroke-width:0; stroke-opacity:1; 
stroke-linecap:round; stroke-linejoin:round;">
<circle cx="19663.4" cy="31982.3" r="393.701" /> 
</g>
<g style="fill:#000000; fill-opacity:1.0; 
stroke:#000000; stroke-width:39.3701; stroke-opacity:1; 
stroke-linecap:round; stroke-linejoin:round;">
</g>
<g style="fill:#000000; fill-opacity:1.0; 
stroke:#000000; stroke-width:0; stroke-opacity:1; 
stroke-linecap:round; stroke-linejoin:round;">
<circle cx="31041.3" cy="31269.7" r="984.252" /> 
</g>
<g style="fill:#000000; fill-opacity:1.0; 
stroke:#000000; stroke-width:39.3701; stroke-opacity:1; 
stroke-linecap:round; stroke-linejoin:round;">
</g>
<g style="fill:#000000; fill-opacity:1.0; 
stroke:#000000; stroke-width:0; stroke-opacity:1; 
stroke-linecap:round; stroke-linejoin:round;">
<circle cx="31041.3" cy="2923.23" r="984.252" /> 
</g>
<g style="fill:#000000; fill-opacity:1.0; 
stroke:#000000; stroke-width:39.3701; stroke-opacity:1; 
stroke-linecap:round; stroke-linejoin:round;">
</g>
<g style="fill:#000000; fill-opacity:1.0; 
stroke:#000000; stroke-width:0; stroke-opacity:1; 
stroke-linecap:round; stroke-linejoin:round;">
<circle cx="2694.89" cy="31269.7" r="984.252" /> 
</g>
<g style="fill:#000000; fill-opacity:1.0; 
stroke:#000000; stroke-width:39.3701; stroke-opacity:1; 
stroke-linecap:round; stroke-linejoin:round;">
</g>
<g style="fill:#000000; fill-opacity:1.0; 
stroke:#000000; stroke-width:0; stroke-opacity:1; 
stroke-linecap:round; stroke-linejoin:round;">
<circle cx="2694.89" cy="2923.23" r="984.252" /> 
</g>
<g style="fill:#000000; fill-opacity:1.0; 
stroke:#000000; stroke-width:39.3701; stroke-opacity:1; 
stroke-linecap:round; stroke-linejoin:round;">
</g>
<g style="fill:#000000; fill-opacity:1.0; 
stroke:#000000; stroke-width:100; stroke-opacity:1; 
stroke-linecap:round; stroke-linejoin:round;">
<polyline style="fill-rule:evenodd;"
points="1360,31508
1526,31674
1460,31516
1460,31025
1647,30571
1994,30223
2448,30035
2939,30035
3032,30073
3032,14574
3033,14099
3213,13664
3376,13558
3446,13628
3446,13487
3552,13325
3648,13285
3648,10406
3648,10099
3690,9884
3812,9703
3993,9581
4208,9539
4422,9581
4604,9703
4708,9858
4812,9703
4993,9581
5208,9539
5422,9581
5604,9703
5708,9858
5812,9703
5993,9581
6208,9539
6422,9581
6604,9703
6708,9858
6812,9703
6993,9581
7208,9539
7422,9581
7604,9703
7708,9858
7812,9703
7993,9581
8208,9539
8422,9581
8604,9703
8708,9858
8812,9703
8993,9581
9208,9539
9422,9581
9604,9703
9708,9858
9812,9703
9993,9581
10208,9539
10422,9581
10604,9703
10708,9858
10812,9703
10993,9581
11208,9539
11422,9581
11604,9703
11708,9858
11812,9703
11993,9581
12208,9539
12422,9581
12604,9703
12708,9858
12812,9703
12993,9581
13208,9539
13422,9581
13604,9703
13708,9858
13812,9703
13993,9581
14208,9539
14422,9581
14604,9703
14708,9858
14812,9703
14993,9581
15208,9539
15422,9581
15604,9703
15708,9858
15812,9703
15993,9581
16208,9539
16422,9581
16604,9703
16708,9858
16812,9703
16993,9581
17208,9539
17422,9581
17604,9703
17708,9858
17812,9703
17993,9581
18208,9539
18422,9581
18604,9703
18725,9884
18768,10099
18768,10406
18725,10620
18604,10802
18441,10911
22773,10911
22880,10932
22971,10993
23031,11083
23053,11190
23053,23001
23031,23108
22971,23199
22880,23260
22773,23281
10962,23281
10855,23260
10764,23199
10704,23108
10683,23001
10683,11190
10704,11083
10764,10993
10855,10932
10962,10911
10975,10911
10812,10802
10708,10646
10604,10802
10422,10923
10208,10966
9993,10923
9812,10802
9708,10646
9604,10802
9422,10923
9208,10966
8993,10923
8812,10802
8708,10646
8604,10802
8422,10923
8208,10966
7993,10923
7812,10802
7708,10646
7604,10802
7422,10923
7208,10966
6993,10923
6812,10802
6708,10646
6604,10802
6422,10923
6208,10966
5993,10923
5812,10802
5708,10646
5604,10802
5422,10923
5208,10966
4993,10923
4812,10802
4708,10646
4604,10802
4422,10923
4208,10966
3993,10923
3812,10802
3690,10620
3648,10406
3648,13285
3992,13143
4242,13144
4115,13017
3933,12578
3932,12102
4114,11663
4450,11326
4889,11144
5364,11144
5803,11325
6140,11661
6322,12100
6323,12576
6141,13015
6017,13139
7572,13139
7668,13157
7752,13213
7808,13296
7827,13394
7827,15284
7809,15379
7754,15463
7671,15519
7572,15539
5682,15539
5587,15520
5503,15465
5447,15382
5428,15284
5428,13508
5366,13534
5103,13534
5079,13558
5242,13664
5423,14103
5422,14579
5242,15014
5079,15120
4298,14339
4304,14333
4233,14263
4227,14268
3446,13487
3446,13628
4157,14339
3376,15120
3213,15014
3032,14574
3032,30073
3393,30222
3446,30276
3446,15191
4227,14410
4298,14480
5009,15191
4903,15353
4463,15534
3988,15533
3552,15353
3446,15191
3446,30276
3740,30569
3928,31023
3929,31514
3741,31967
3394,32315
2941,32503
2450,32504
2289,32437
2456,32604
4978,32604
16047,32604
16047,31102
16047,30302
16047,28102
16047,27302
16066,27207
16121,27123
16204,27067
16302,27047
17102,27047
17198,27066
17281,27121
17322,27181
17441,27102
17690,27052
17715,27052
17964,27102
18175,27243
18316,27454
18365,27702
18316,27951
18175,28162
17964,28303
17715,28352
17690,28352
17441,28303
17322,28223
17284,28281
17201,28337
17102,28357
16302,28357
16207,28339
16123,28284
16067,28201
16047,28102
16047,30302
16066,30207
16121,30123
16204,30067
16302,30047
17102,30047
17198,30066
17281,30121
17322,30181
17441,30102
17690,30052
17715,30052
17964,30102
18175,30243
18316,30454
18365,30702
18316,30951
18175,31162
17964,31303
17715,31352
17690,31352
17441,31303
17322,31223
17284,31281
17201,31337
17102,31357
16302,31357
16207,31339
16123,31284
16067,31201
16047,31102
16047,32604
19015,32604
19015,32086
19019,31973
19019,28854
19117,28618
19298,28436
19534,28338
19790,28338
20027,28436
20208,28617
20306,28853
20307,29109
20209,29346
20028,29527
19791,29625
19535,29626
19299,29528
19118,29347
19019,29110
19019,28854
19019,31973
19024,31830
19104,31638
19209,31599
19280,31669
19280,31528
19319,31423
19559,31334
19815,31343
20007,31423
20046,31528
19663,31911
19280,31528
19280,31669
19592,31982
19209,32365
19104,32326
19015,32086
19015,32604
19471,32604
19319,32541
19280,32436
19663,32052
19734,32123
19734,31982
20117,31599
20222,31638
20311,31878
20301,32134
20222,32326
20117,32365
19734,31982
19734,32123
20046,32436
20007,32541
19837,32604
21047,32604
21047,31102
21047,30302
21047,28102
21047,27302
21066,27207
21121,27123
21204,27067
21302,27047
22102,27047
22198,27066
22281,27121
22322,27181
22441,27102
22690,27052
22715,27052
22964,27102
23175,27243
23291,27418
23291,17096
23336,16870
23464,16679
23588,16596
23464,16513
23336,16322
23291,16096
23336,15870
23464,15679
23656,15551
23881,15506
24027,15506
24253,15551
24444,15679
24572,15870
24617,16096
24572,16322
24444,16513
24320,16596
24444,16679
24572,16870
24617,17096
24572,17322
24444,17513
24435,17519
24496,17544
24566,17614
24604,17706
24604,17983
24542,18046
24004,18046
24004,18038
23904,18038
23904,18046
23367,18046
23304,17983
23304,17706
23342,17614
23413,17544
23473,17519
23464,17513
23336,17322
23291,17096
23291,27418
23304,27437
23304,18486
23304,18208
23367,18146
23904,18146
23904,18623
23842,18686
23604,18686
23505,18686
23413,18648
23342,18578
23304,18486
23304,27437
23316,27454
23365,27702
23316,27951
23175,28162
22964,28303
22715,28352
22690,28352
22441,28303
22322,28223
22284,28281
22201,28337
22102,28357
21302,28357
21207,28339
21123,28284
21067,28201
21047,28102
21047,30302
21066,30207
21121,30123
21204,30067
21302,30047
22102,30047
22198,30066
22281,30121
22322,30181
22441,30102
22690,30052
22715,30052
22964,30102
23175,30243
23316,30454
23365,30702
23316,30951
23175,31162
22964,31303
22715,31352
22690,31352
22441,31303
22322,31223
22284,31281
22201,31337
22102,31357
21302,31357
21207,31339
21123,31284
21067,31201
21047,31102
21047,32604
24004,32604
24004,18623
24004,18146
24542,18146
24604,18208
24604,18486
24566,18578
24496,18648
24404,18686
24305,18686
24067,18686
24004,18623
24004,32604
24093,32604
24093,30797
24098,30692
24098,29583
24190,29360
24359,29190
24582,29098
24822,29098
25044,29190
25214,29359
25306,29582
25307,29822
25215,30044
25045,30214
25037,30218
25057,30277
24702,30632
24348,30277
24368,30218
24360,30215
24190,30045
24098,29823
24098,29583
24098,30692
24104,30557
24176,30382
24277,30348
24632,30702
24277,31057
24176,31023
24093,30797
24093,32604
24348,32604
24348,31128
24702,30773
24773,30844
24773,30702
25128,30348
25228,30382
25311,30608
25301,30848
25228,31023
25128,31057
24773,30702
24773,30844
25057,31128
25023,31228
24797,31311
24557,31301
24382,31228
24348,31128
24348,32604
26783,32604
26783,21515
26783,21416
26783,21178
26783,20953
26783,20715
26783,20616
26783,18515
26783,18416
26783,18178
26783,17953
26783,17715
26783,17616
26821,17524
26892,17454
26983,17416
27261,17416
27323,17478
27323,18016
26846,18016
26783,17953
26783,18178
26846,18116
27323,18116
27323,18653
27261,18716
26983,18716
26892,18678
26821,18607
26783,18515
26783,20616
26821,20524
26892,20454
26983,20416
27261,20416
27323,20478
27323,21016
26846,21016
26783,20953
26783,21178
26846,21116
27323,21116
27323,21653
27261,21716
26983,21716
26892,21678
26821,21607
26783,21515
26783,32604
26834,32604
26834,23460
26843,23204
26923,23012
27028,22973
27099,23043
27099,22902
27138,22797
27378,22708
27423,22709
27423,21653
27423,21116
27431,21116
27431,21016
27423,21016
27423,20478
27423,18653
27423,18116
27431,18116
27431,18016
27423,18016
27423,17478
27486,17416
27763,17416
27855,17454
27925,17524
27950,17584
27956,17576
28147,17448
28373,17403
28599,17448
28790,17576
28873,17700
28956,17576
29147,17448
29373,17403
29599,17448
29790,17576
29918,17767
29963,17993
29963,18138
29918,18364
29790,18556
29599,18683
29373,18728
29147,18683
28956,18556
28873,18432
28790,18556
28599,18683
28373,18728
28147,18683
27956,18556
27950,18547
27925,18607
27855,18678
27763,18716
27486,18716
27423,18653
27423,20478
27486,20416
27763,20416
27855,20454
27925,20524
27950,20584
27956,20576
28147,20448
28373,20403
28599,20448
28790,20576
28873,20700
28956,20576
29147,20448
29373,20403
29599,20448
29790,20576
29918,20767
29963,20993
29963,21138
29918,21364
29790,21556
29599,21683
29373,21728
29147,21683
28956,21556
28873,21432
28790,21556
28599,21683
28373,21728
28147,21683
27956,21556
27950,21547
27925,21607
27855,21678
27763,21716
27486,21716
27423,21653
27423,22709
27634,22717
27826,22797
27865,22902
27482,23285
27099,22902
27099,23043
27411,23356
27028,23739
26923,23700
26834,23460
26834,32604
27099,32604
27099,23810
27482,23427
27552,23497
27552,23356
27936,22973
28041,23012
28130,23252
28120,23508
28041,23700
27936,23739
27552,23356
27552,23497
27865,23810
27826,23915
27586,24004
27330,23994
27138,23915
27099,23810
27099,32604
27858,32604
27858,26781
27903,26555
28031,26364
28155,26281
28031,26198
27903,26007
27858,25781
27903,25555
28031,25364
28223,25236
28448,25191
28594,25191
28820,25236
28838,25248
28838,23228
28936,22992
29117,22810
29353,22712
29609,22712
29846,22810
30027,22991
30125,23227
30126,23483
30028,23720
29847,23901
29610,23999
29354,24000
29118,23902
28936,23721
28838,23484
28838,23228
28838,25248
29011,25364
29139,25555
29184,25781
29139,26007
29011,26198
28887,26281
29011,26364
29139,26555
29184,26781
29139,27007
29011,27198
29005,27202
29016,27205
29100,27260
29156,27343
29176,27441
29176,28121
29158,28216
29103,28300
29019,28356
28921,28376
28121,28376
28026,28357
27942,28302
27886,28219
27866,28121
27866,27441
27885,27346
27940,27262
28023,27206
28038,27203
28031,27198
27903,27007
27858,26781
27858,32604
31201,32604
31314,32492
31287,32503
30796,32504
30343,32316
29995,31969
29807,31516
29806,31025
29994,30571
30161,30404
30161,28232
30161,25232
30259,24996
30440,24814
30676,24716
30932,24716
31169,24814
31350,24995
31448,25231
31448,25487
31351,25724
31170,25905
30933,26003
30677,26004
30440,25906
30259,25725
30161,25488
30161,25232
30161,28232
30259,27996
30440,27814
30676,27716
30932,27716
31169,27814
31350,27995
31448,28231
31448,28487
31351,28724
31170,28905
30933,29003
30677,29004
30440,28906
30259,28725
30161,28488
30161,28232
30161,30404
30341,30223
30794,30035
31285,30035
31739,30222
32087,30569
32275,31023
32275,31514
32258,31557
32329,31486
32329,7303
30627,7303
29815,6897
29402,6072
29815,5248
30627,4841
32329,4841
32329,2715
32263,2647
32275,2676
32275,3167
32088,3621
31741,3968
31287,4157
30796,4157
30343,3970
29995,3623
29807,3169
29806,2678
29994,2224
30341,1877
30794,1689
31285,1688
31369,1723
31277,1627
31001,1627
2655,1627
2377,1627
2222,1782
2448,1689
2939,1688
3393,1876
3740,2223
3928,2676
3929,3167
3750,3601
3799,3567
3898,3547
4518,3547
4613,3566
4697,3621
4753,3704
4766,3771
4812,3703
4993,3581
5208,3539
5422,3581
5604,3703
5708,3858
5812,3703
5993,3581
6208,3539
6422,3581
6604,3703
6708,3858
6812,3703
6993,3581
7208,3539
7422,3581
7604,3703
7708,3858
7812,3703
7993,3581
8208,3539
8422,3581
8604,3703
8708,3858
8812,3703
8993,3581
9208,3539
9422,3581
9604,3703
9708,3858
9812,3703
9993,3581
10208,3539
10422,3581
10604,3703
10708,3858
10812,3703
10993,3581
11208,3539
11422,3581
11604,3703
11708,3858
11812,3703
11993,3581
12208,3539
12422,3581
12604,3703
12708,3858
12812,3703
12993,3581
13208,3539
13422,3581
13604,3703
13708,3858
13812,3703
13993,3581
14208,3539
14422,3581
14604,3703
14708,3858
14812,3703
14993,3581
15208,3539
15422,3581
15604,3703
15708,3858
15812,3703
15993,3581
16208,3539
16422,3581
16604,3703
16708,3858
16812,3703
16993,3581
17208,3539
17422,3581
17604,3703
17708,3858
17812,3703
17993,3581
18208,3539
18422,3581
18604,3703
18725,3884
18768,4099
18768,4406
18725,4620
18604,4802
18422,4923
18208,4966
17993,4923
17812,4802
17708,4646
17604,4802
17422,4923
17208,4966
16993,4923
16812,4802
16708,4646
16604,4802
16422,4923
16208,4966
15993,4923
15812,4802
15708,4646
15604,4802
15422,4923
15208,4966
14993,4923
14812,4802
14708,4646
14604,4802
14422,4923
14208,4966
13993,4923
13812,4802
13708,4646
13604,4802
13422,4923
13208,4966
12993,4923
12812,4802
12708,4646
12604,4802
12422,4923
12208,4966
11993,4923
11812,4802
11708,4646
11604,4802
11422,4923
11208,4966
10993,4923
10812,4802
10708,4646
10604,4802
10422,4923
10208,4966
9993,4923
9812,4802
9708,4646
9604,4802
9422,4923
9208,4966
8993,4923
8812,4802
8708,4646
8604,4802
8422,4923
8208,4966
7993,4923
7812,4802
7708,4646
7604,4802
7422,4923
7208,4966
6993,4923
6812,4802
6708,4646
6604,4802
6422,4923
6208,4966
5993,4923
5812,4802
5708,4646
5604,4802
5422,4923
5208,4966
4993,4923
4812,4802
4766,4734
4754,4798
4699,4881
4616,4937
4518,4957
3898,4957
3802,4939
3719,4884
3663,4801
3643,4702
3643,3802
3661,3707
3673,3690
3394,3968
2941,4157
2450,4157
1996,3970
1649,3623
1460,3169
1460,2678
1554,2451
1360,2645
1360,31508
" /> 
</g>
<g style="fill:#FFFFFF; fill-opacity:1.0; 
stroke:#FFFFFF; stroke-width:100; stroke-opacity:1; 
stroke-linecap:round; stroke-linejoin:round;">
</g>
<g style="fill:#FFFFFF; fill-opacity:1.0; 
stroke:#FFFFFF; stroke-width:0; stroke-opacity:1; 
stroke-linecap:round; stroke-linejoin:round;">
<circle cx="28521.7" cy="27781.5" r="200" /> 
</g>
<g style="fill:#FFFFFF; fill-opacity:1.0; 
stroke:#FFFFFF; stroke-width:39.3701; stroke-opacity:1; 
stroke-linecap:round; stroke-linejoin:round;">
</g>
<g style="fill:#FFFFFF; fill-opacity:1.0; 
stroke:#FFFFFF; stroke-width:0; stroke-opacity:1; 
stroke-linecap:round; stroke-linejoin:round;">
<circle cx="28521.7" cy="26781.5" r="200" /> 
</g>
<g style="fill:#FFFFFF; fill-opacity:1.0; 
stroke:#FFFFFF; stroke-width:39.3701; stroke-opacity:1; 
stroke-linecap:round; stroke-linejoin:round;">
</g>
<g style="fill:#FFFFFF; fill-opacity:1.0; 
stroke:#FFFFFF; stroke-width:0; stroke-opacity:1; 
stroke-linecap:round; stroke-linejoin:round;">
<circle cx="28521.7" cy="25781.5" r="200" /> 
</g>
<g style="fill:#FFFFFF; fill-opacity:1.0; 
stroke:#FFFFFF; stroke-width:39.3701; stroke-opacity:1; 
stroke-linecap:round; stroke-linejoin:round;">
</g>
<g style="fill:#FFFFFF; fill-opacity:1.0; 
stroke:#FFFFFF; stroke-width:0; stroke-opacity:1; 
stroke-linecap:round; stroke-linejoin:round;">
<circle cx="4208.27" cy="4252.76" r="160" /> 
</g>
<g style="fill:#FFFFFF; fill-opacity:1.0; 
stroke:#FFFFFF; stroke-width:39.3701; stroke-opacity:1; 
stroke-linecap:round; stroke-linejoin:round;">
</g>
<g style="fill:#FFFFFF; fill-opacity:1.0; 
stroke:#FFFFFF; stroke-width:0; stroke-opacity:1; 
stroke-linecap:round; stroke-linejoin:round;">
<circle cx="5208.27" cy="4252.76" r="160" /> 
</g>
<g style="fill:#FFFFFF; fill-opacity:1.0; 
stroke:#FFFFFF; stroke-width:39.3701; stroke-opacity:1; 
stroke-linecap:round; stroke-linejoin:round;">
</g>
<g style="fill:#FFFFFF; fill-opacity:1.0; 
stroke:#FFFFFF; stroke-width:0; stroke-opacity:1; 
stroke-linecap:round; stroke-linejoin:round;">
<circle cx="6208.27" cy="4252.76" r="160" /> 
</g>
<g style="fill:#FFFFFF; fill-opacity:1.0; 
stroke:#FFFFFF; stroke-width:39.3701; stroke-opacity:1; 
stroke-linecap:round; stroke-linejoin:round;">
</g>
<g style="fill:#FFFFFF; fill-opacity:1.0; 
stroke:#FFFFFF; stroke-width:0; stroke-opacity:1; 
stroke-linecap:round; stroke-linejoin:round;">
<circle cx="7208.27" cy="4252.76" r="160" /> 
</g>
<g style="fill:#FFFFFF; fill-opacity:1.0; 
stroke:#FFFFFF; stroke-width:39.3701; stroke-opacity:1; 
stroke-linecap:round; stroke-linejoin:round;">
</g>
<g style="fill:#FFFFFF; fill-opacity:1.0; 
stroke:#FFFFFF; stroke-width:0; stroke-opacity:1; 
stroke-linecap:round; stroke-linejoin:round;">
<circle cx="8208.27" cy="4252.76" r="160" /> 
</g>
<g style="fill:#FFFFFF; fill-opacity:1.0; 
stroke:#FFFFFF; stroke-width:39.3701; stroke-opacity:1; 
stroke-linecap:round; stroke-linejoin:round;">
</g>
<g style="fill:#FFFFFF; fill-opacity:1.0; 
stroke:#FFFFFF; stroke-width:0; stroke-opacity:1; 
stroke-linecap:round; stroke-linejoin:round;">
<circle cx="9208.27" cy="4252.76" r="160" /> 
</g>
<g style="fill:#FFFFFF; fill-opacity:1.0; 
stroke:#FFFFFF; stroke-width:39.3701; stroke-opacity:1; 
stroke-linecap:round; stroke-linejoin:round;">
</g>
<g style="fill:#FFFFFF; fill-opacity:1.0; 
stroke:#FFFFFF; stroke-width:0; stroke-opacity:1; 
stroke-linecap:round; stroke-linejoin:round;">
<circle cx="10208.3" cy="4252.76" r="160" /> 
</g>
<g style="fill:#FFFFFF; fill-opacity:1.0; 
stroke:#FFFFFF; stroke-width:39.3701; stroke-opacity:1; 
stroke-linecap:round; stroke-linejoin:round;">
</g>
<g style="fill:#FFFFFF; fill-opacity:1.0; 
stroke:#FFFFFF; stroke-width:0; stroke-opacity:1; 
stroke-linecap:round; stroke-linejoin:round;">
<circle cx="11208.3" cy="4252.76" r="160" /> 
</g>
<g style="fill:#FFFFFF; fill-opacity:1.0; 
stroke:#FFFFFF; stroke-width:39.3701; stroke-opacity:1; 
stroke-linecap:round; stroke-linejoin:round;">
</g>
<g style="fill:#FFFFFF; fill-opacity:1.0; 
stroke:#FFFFFF; stroke-width:0; stroke-opacity:1; 
stroke-linecap:round; stroke-linejoin:round;">
<circle cx="12208.3" cy="4252.76" r="160" /> 
</g>
<g style="fill:#FFFFFF; fill-opacity:1.0; 
stroke:#FFFFFF; stroke-width:39.3701; stroke-opacity:1; 
stroke-linecap:round; stroke-linejoin:round;">
</g>
<g style="fill:#FFFFFF; fill-opacity:1.0; 
stroke:#FFFFFF; stroke-width:0; stroke-opacity:1; 
stroke-linecap:round; stroke-linejoin:round;">
<circle cx="13208.3" cy="4252.76" r="160" /> 
</g>
<g style="fill:#FFFFFF; fill-opacity:1.0; 
stroke:#FFFFFF; stroke-width:39.3701; stroke-opacity:1; 
stroke-linecap:round; stroke-linejoin:round;">
</g>
<g style="fill:#FFFFFF; fill-opacity:1.0; 
stroke:#FFFFFF; stroke-width:0; stroke-opacity:1; 
stroke-linecap:round; stroke-linejoin:round;">
<circle cx="14208.3" cy="4252.76" r="160" /> 
</g>
<g style="fill:#FFFFFF; fill-opacity:1.0; 
stroke:#FFFFFF; stroke-width:39.3701; stroke-opacity:1; 
stroke-linecap:round; stroke-linejoin:round;">
</g>
<g style="fill:#FFFFFF; fill-opacity:1.0; 
stroke:#FFFFFF; stroke-width:0; stroke-opacity:1; 
stroke-linecap:round; stroke-linejoin:round;">
<circle cx="15208.3" cy="4252.76" r="160" /> 
</g>
<g style="fill:#FFFFFF; fill-opacity:1.0; 
stroke:#FFFFFF; stroke-width:39.3701; stroke-opacity:1; 
stroke-linecap:round; stroke-linejoin:round;">
</g>
<g style="fill:#FFFFFF; fill-opacity:1.0; 
stroke:#FFFFFF; stroke-width:0; stroke-opacity:1; 
stroke-linecap:round; stroke-linejoin:round;">
<circle cx="16208.3" cy="4252.76" r="160" /> 
</g>
<g style="fill:#FFFFFF; fill-opacity:1.0; 
stroke:#FFFFFF; stroke-width:39.3701; stroke-opacity:1; 
stroke-linecap:round; stroke-linejoin:round;">
</g>
<g style="fill:#FFFFFF; fill-opacity:1.0; 
stroke:#FFFFFF; stroke-width:0; stroke-opacity:1; 
stroke-linecap:round; stroke-linejoin:round;">
<circle cx="17208.3" cy="4252.76" r="160" /> 
</g>
<g style="fill:#FFFFFF; fill-opacity:1.0; 
stroke:#FFFFFF; stroke-width:39.3701; stroke-opacity:1; 
stroke-linecap:round; stroke-linejoin:round;">
</g>
<g style="fill:#FFFFFF; fill-opacity:1.0; 
stroke:#FFFFFF; stroke-width:0; stroke-opacity:1; 
stroke-linecap:round; stroke-linejoin:round;">
<circle cx="18208.3" cy="4252.76" r="160" /> 
</g>
<g style="fill:#FFFFFF; fill-opacity:1.0; 
stroke:#FFFFFF; stroke-width:39.3701; stroke-opacity:1; 
stroke-linecap:round; stroke-linejoin:round;">
</g>
<g style="fill:#FFFFFF; fill-opacity:1.0; 
stroke:#FFFFFF; stroke-width:0; stroke-opacity:1; 
stroke-linecap:round; stroke-linejoin:round;">
<circle cx="18208.3" cy="10252.8" r="160" /> 
</g>
<g style="fill:#FFFFFF; fill-opacity:1.0; 
stroke:#FFFFFF; stroke-width:39.3701; stroke-opacity:1; 
stroke-linecap:round; stroke-linejoin:round;">
</g>
<g style="fill:#FFFFFF; fill-opacity:1.0; 
stroke:#FFFFFF; stroke-width:0; stroke-opacity:1; 
stroke-linecap:round; stroke-linejoin:round;">
<circle cx="17208.3" cy="10252.8" r="160" /> 
</g>
<g style="fill:#FFFFFF; fill-opacity:1.0; 
stroke:#FFFFFF; stroke-width:39.3701; stroke-opacity:1; 
stroke-linecap:round; stroke-linejoin:round;">
</g>
<g style="fill:#FFFFFF; fill-opacity:1.0; 
stroke:#FFFFFF; stroke-width:0; stroke-opacity:1; 
stroke-linecap:round; stroke-linejoin:round;">
<circle cx="16208.3" cy="10252.8" r="160" /> 
</g>
<g style="fill:#FFFFFF; fill-opacity:1.0; 
stroke:#FFFFFF; stroke-width:39.3701; stroke-opacity:1; 
stroke-linecap:round; stroke-linejoin:round;">
</g>
<g style="fill:#FFFFFF; fill-opacity:1.0; 
stroke:#FFFFFF; stroke-width:0; stroke-opacity:1; 
stroke-linecap:round; stroke-linejoin:round;">
<circle cx="15208.3" cy="10252.8" r="160" /> 
</g>
<g style="fill:#FFFFFF; fill-opacity:1.0; 
stroke:#FFFFFF; stroke-width:39.3701; stroke-opacity:1; 
stroke-linecap:round; stroke-linejoin:round;">
</g>
<g style="fill:#FFFFFF; fill-opacity:1.0; 
stroke:#FFFFFF; stroke-width:0; stroke-opacity:1; 
stroke-linecap:round; stroke-linejoin:round;">
<circle cx="14208.3" cy="10252.8" r="160" /> 
</g>
<g style="fill:#FFFFFF; fill-opacity:1.0; 
stroke:#FFFFFF; stroke-width:39.3701; stroke-opacity:1; 
stroke-linecap:round; stroke-linejoin:round;">
</g>
<g style="fill:#FFFFFF; fill-opacity:1.0; 
stroke:#FFFFFF; stroke-width:0; stroke-opacity:1; 
stroke-linecap:round; stroke-linejoin:round;">
<circle cx="13208.3" cy="10252.8" r="160" /> 
</g>
<g style="fill:#FFFFFF; fill-opacity:1.0; 
stroke:#FFFFFF; stroke-width:39.3701; stroke-opacity:1; 
stroke-linecap:round; stroke-linejoin:round;">
</g>
<g style="fill:#FFFFFF; fill-opacity:1.0; 
stroke:#FFFFFF; stroke-width:0; stroke-opacity:1; 
stroke-linecap:round; stroke-linejoin:round;">
<circle cx="12208.3" cy="10252.8" r="160" /> 
</g>
<g style="fill:#FFFFFF; fill-opacity:1.0; 
stroke:#FFFFFF; stroke-width:39.3701; stroke-opacity:1; 
stroke-linecap:round; stroke-linejoin:round;">
</g>
<g style="fill:#FFFFFF; fill-opacity:1.0; 
stroke:#FFFFFF; stroke-width:0; stroke-opacity:1; 
stroke-linecap:round; stroke-linejoin:round;">
<circle cx="11208.3" cy="10252.8" r="160" /> 
</g>
<g style="fill:#FFFFFF; fill-opacity:1.0; 
stroke:#FFFFFF; stroke-width:39.3701; stroke-opacity:1; 
stroke-linecap:round; stroke-linejoin:round;">
</g>
<g style="fill:#FFFFFF; fill-opacity:1.0; 
stroke:#FFFFFF; stroke-width:0; stroke-opacity:1; 
stroke-linecap:round; stroke-linejoin:round;">
<circle cx="10208.3" cy="10252.8" r="160" /> 
</g>
<g style="fill:#FFFFFF; fill-opacity:1.0; 
stroke:#FFFFFF; stroke-width:39.3701; stroke-opacity:1; 
stroke-linecap:round; stroke-linejoin:round;">
</g>
<g style="fill:#FFFFFF; fill-opacity:1.0; 
stroke:#FFFFFF; stroke-width:0; stroke-opacity:1; 
stroke-linecap:round; stroke-linejoin:round;">
<circle cx="9208.27" cy="10252.8" r="160" /> 
</g>
<g style="fill:#FFFFFF; fill-opacity:1.0; 
stroke:#FFFFFF; stroke-width:39.3701; stroke-opacity:1; 
stroke-linecap:round; stroke-linejoin:round;">
</g>
<g style="fill:#FFFFFF; fill-opacity:1.0; 
stroke:#FFFFFF; stroke-width:0; stroke-opacity:1; 
stroke-linecap:round; stroke-linejoin:round;">
<circle cx="8208.27" cy="10252.8" r="160" /> 
</g>
<g style="fill:#FFFFFF; fill-opacity:1.0; 
stroke:#FFFFFF; stroke-width:39.3701; stroke-opacity:1; 
stroke-linecap:round; stroke-linejoin:round;">
</g>
<g style="fill:#FFFFFF; fill-opacity:1.0; 
stroke:#FFFFFF; stroke-width:0; stroke-opacity:1; 
stroke-linecap:round; stroke-linejoin:round;">
<circle cx="7208.27" cy="10252.8" r="160" /> 
</g>
<g style="fill:#FFFFFF; fill-opacity:1.0; 
stroke:#FFFFFF; stroke-width:39.3701; stroke-opacity:1; 
stroke-linecap:round; stroke-linejoin:round;">
</g>
<g style="fill:#FFFFFF; fill-opacity:1.0; 
stroke:#FFFFFF; stroke-width:0; stroke-opacity:1; 
stroke-linecap:round; stroke-linejoin:round;">
<circle cx="6208.27" cy="10252.8" r="160" /> 
</g>
<g style="fill:#FFFFFF; fill-opacity:1.0; 
stroke:#FFFFFF; stroke-width:39.3701; stroke-opacity:1; 
stroke-linecap:round; stroke-linejoin:round;">
</g>
<g style="fill:#FFFFFF; fill-opacity:1.0; 
stroke:#FFFFFF; stroke-width:0; stroke-opacity:1; 
stroke-linecap:round; stroke-linejoin:round;">
<circle cx="5208.27" cy="10252.8" r="160" /> 
</g>
<g style="fill:#FFFFFF; fill-opacity:1.0; 
stroke:#FFFFFF; stroke-width:39.3701; stroke-opacity:1; 
stroke-linecap:round; stroke-linejoin:round;">
</g>
<g style="fill:#FFFFFF; fill-opacity:1.0; 
stroke:#FFFFFF; stroke-width:0; stroke-opacity:1; 
stroke-linecap:round; stroke-linejoin:round;">
<circle cx="4208.27" cy="10252.8" r="160" /> 
</g>
<g style="fill:#FFFFFF; fill-opacity:1.0; 
stroke:#FFFFFF; stroke-width:39.3701; stroke-opacity:1; 
stroke-linecap:round; stroke-linejoin:round;">
</g>
<g style="fill:#FFFFFF; fill-opacity:1.0; 
stroke:#FFFFFF; stroke-width:0; stroke-opacity:1; 
stroke-linecap:round; stroke-linejoin:round;">
<circle cx="29482.3" cy="23356.3" r="196.85" /> 
</g>
<g style="fill:#FFFFFF; fill-opacity:1.0; 
stroke:#FFFFFF; stroke-width:39.3701; stroke-opacity:1; 
stroke-linecap:round; stroke-linejoin:round;">
</g>
<g style="fill:#FFFFFF; fill-opacity:1.0; 
stroke:#FFFFFF; stroke-width:0; stroke-opacity:1; 
stroke-linecap:round; stroke-linejoin:round;">
<circle cx="27482.3" cy="23356.3" r="196.85" /> 
</g>
<g style="fill:#FFFFFF; fill-opacity:1.0; 
stroke:#FFFFFF; stroke-width:39.3701; stroke-opacity:1; 
stroke-linecap:round; stroke-linejoin:round;">
</g>
<g style="fill:#FFFFFF; fill-opacity:1.0; 
stroke:#FFFFFF; stroke-width:0; stroke-opacity:1; 
stroke-linecap:round; stroke-linejoin:round;">
<circle cx="24702.8" cy="30702.8" r="196.85" /> 
</g>
<g style="fill:#FFFFFF; fill-opacity:1.0; 
stroke:#FFFFFF; stroke-width:39.3701; stroke-opacity:1; 
stroke-linecap:round; stroke-linejoin:round;">
</g>
<g style="fill:#FFFFFF; fill-opacity:1.0; 
stroke:#FFFFFF; stroke-width:0; stroke-opacity:1; 
stroke-linecap:round; stroke-linejoin:round;">
<circle cx="24702.8" cy="29702.8" r="196.85" /> 
</g>
<g style="fill:#FFFFFF; fill-opacity:1.0; 
stroke:#FFFFFF; stroke-width:39.3701; stroke-opacity:1; 
stroke-linecap:round; stroke-linejoin:round;">
</g>
<g style="fill:#FFFFFF; fill-opacity:1.0; 
stroke:#FFFFFF; stroke-width:400; stroke-opacity:1; 
stroke-linecap:round; stroke-linejoin:round;">
</g>
<g style="fill:#FFFFFF; fill-opacity:0.0; 
stroke:#FFFFFF; stroke-width:400; stroke-opacity:1; 
stroke-linecap:round; stroke-linejoin:round;">
<path d="M4227 14639
L4227 14039
" />
<path d="M6627 14639
L6627 14039
" />
<path d="M4827 12339
L5427 12339
" />
</g>
<g style="fill:#FFFFFF; fill-opacity:1.0; 
stroke:#FFFFFF; stroke-width:0; stroke-opacity:1; 
stroke-linecap:round; stroke-linejoin:round;">
<circle cx="23954.7" cy="18096.5" r="200" /> 
</g>
<g style="fill:#FFFFFF; fill-opacity:1.0; 
stroke:#FFFFFF; stroke-width:39.3701; stroke-opacity:1; 
stroke-linecap:round; stroke-linejoin:round;">
</g>
<g style="fill:#FFFFFF; fill-opacity:1.0; 
stroke:#FFFFFF; stroke-width:0; stroke-opacity:1; 
stroke-linecap:round; stroke-linejoin:round;">
<circle cx="23954.7" cy="17096.5" r="200" /> 
</g>
<g style="fill:#FFFFFF; fill-opacity:1.0; 
stroke:#FFFFFF; stroke-width:39.3701; stroke-opacity:1; 
stroke-linecap:round; stroke-linejoin:round;">
</g>
<g style="fill:#FFFFFF; fill-opacity:1.0; 
stroke:#FFFFFF; stroke-width:0; stroke-opacity:1; 
stroke-linecap:round; stroke-linejoin:round;">
<circle cx="23954.7" cy="16096.5" r="200" /> 
</g>
<g style="fill:#FFFFFF; fill-opacity:1.0; 
stroke:#FFFFFF; stroke-width:39.3701; stroke-opacity:1; 
stroke-linecap:round; stroke-linejoin:round;">
</g>
<g style="fill:#FFFFFF; fill-opacity:1.0; 
stroke:#FFFFFF; stroke-width:0; stroke-opacity:1; 
stroke-linecap:round; stroke-linejoin:round;">
<circle cx="27373.6" cy="21066.1" r="200" /> 
</g>
<g style="fill:#FFFFFF; fill-opacity:1.0; 
stroke:#FFFFFF; stroke-width:39.3701; stroke-opacity:1; 
stroke-linecap:round; stroke-linejoin:round;">
</g>
<g style="fill:#FFFFFF; fill-opacity:1.0; 
stroke:#FFFFFF; stroke-width:0; stroke-opacity:1; 
stroke-linecap:round; stroke-linejoin:round;">
<circle cx="28373.6" cy="21066.1" r="200" /> 
</g>
<g style="fill:#FFFFFF; fill-opacity:1.0; 
stroke:#FFFFFF; stroke-width:39.3701; stroke-opacity:1; 
stroke-linecap:round; stroke-linejoin:round;">
</g>
<g style="fill:#FFFFFF; fill-opacity:1.0; 
stroke:#FFFFFF; stroke-width:0; stroke-opacity:1; 
stroke-linecap:round; stroke-linejoin:round;">
<circle cx="29373.6" cy="21066.1" r="200" /> 
</g>
<g style="fill:#FFFFFF; fill-opacity:1.0; 
stroke:#FFFFFF; stroke-width:39.3701; stroke-opacity:1; 
stroke-linecap:round; stroke-linejoin:round;">
</g>
<g style="fill:#FFFFFF; fill-opacity:1.0; 
stroke:#FFFFFF; stroke-width:0; stroke-opacity:1; 
stroke-linecap:round; stroke-linejoin:round;">
<circle cx="27373.6" cy="18066.1" r="200" /> 
</g>
<g style="fill:#FFFFFF; fill-opacity:1.0; 
stroke:#FFFFFF; stroke-width:39.3701; stroke-opacity:1; 
stroke-linecap:round; stroke-linejoin:round;">
</g>
<g style="fill:#FFFFFF; fill-opacity:1.0; 
stroke:#FFFFFF; stroke-width:0; stroke-opacity:1; 
stroke-linecap:round; stroke-linejoin:round;">
<circle cx="28373.6" cy="18066.1" r="200" /> 
</g>
<g style="fill:#FFFFFF; fill-opacity:1.0; 
stroke:#FFFFFF; stroke-width:39.3701; stroke-opacity:1; 
stroke-linecap:round; stroke-linejoin:round;">
</g>
<g style="fill:#FFFFFF; fill-opacity:1.0; 
stroke:#FFFFFF; stroke-width:0; stroke-opacity:1; 
stroke-linecap:round; stroke-linejoin:round;">
<circle cx="29373.6" cy="18066.1" r="200" /> 
</g>
<g style="fill:#FFFFFF; fill-opacity:1.0; 
stroke:#FFFFFF; stroke-width:39.3701; stroke-opacity:1; 
stroke-linecap:round; stroke-linejoin:round;">
</g>
<g style="fill:#FFFFFF; fill-opacity:1.0; 
stroke:#FFFFFF; stroke-width:0; stroke-opacity:1; 
stroke-linecap:round; stroke-linejoin:round;">
<circle cx="16702.8" cy="30702.8" r="200" /> 
</g>
<g style="fill:#FFFFFF; fill-opacity:1.0; 
stroke:#FFFFFF; stroke-width:39.3701; stroke-opacity:1; 
stroke-linecap:round; stroke-linejoin:round;">
</g>
<g style="fill:#FFFFFF; fill-opacity:1.0; 
stroke:#FFFFFF; stroke-width:0; stroke-opacity:1; 
stroke-linecap:round; stroke-linejoin:round;">
<circle cx="17702.8" cy="30702.8" r="200" /> 
</g>
<g style="fill:#FFFFFF; fill-opacity:1.0; 
stroke:#FFFFFF; stroke-width:39.3701; stroke-opacity:1; 
stroke-linecap:round; stroke-linejoin:round;">
</g>
<g style="fill:#FFFFFF; fill-opacity:1.0; 
stroke:#FFFFFF; stroke-width:0; stroke-opacity:1; 
stroke-linecap:round; stroke-linejoin:round;">
<circle cx="16702.8" cy="27702.8" r="200" /> 
</g>
<g style="fill:#FFFFFF; fill-opacity:1.0; 
stroke:#FFFFFF; stroke-width:39.3701; stroke-opacity:1; 
stroke-linecap:round; stroke-linejoin:round;">
</g>
<g style="fill:#FFFFFF; fill-opacity:1.0; 
stroke:#FFFFFF; stroke-width:0; stroke-opacity:1; 
stroke-linecap:round; stroke-linejoin:round;">
<circle cx="17702.8" cy="27702.8" r="200" /> 
</g>
<g style="fill:#FFFFFF; fill-opacity:1.0; 
stroke:#FFFFFF; stroke-width:39.3701; stroke-opacity:1; 
stroke-linecap:round; stroke-linejoin:round;">
</g>
<g style="fill:#FFFFFF; fill-opacity:1.0; 
stroke:#FFFFFF; stroke-width:0; stroke-opacity:1; 
stroke-linecap:round; stroke-linejoin:round;">
<circle cx="21702.8" cy="30702.8" r="200" /> 
</g>
<g style="fill:#FFFFFF; fill-opacity:1.0; 
stroke:#FFFFFF; stroke-width:39.3701; stroke-opacity:1; 
stroke-linecap:round; stroke-linejoin:round;">
</g>
<g style="fill:#FFFFFF; fill-opacity:1.0; 
stroke:#FFFFFF; stroke-width:0; stroke-opacity:1; 
stroke-linecap:round; stroke-linejoin:round;">
<circle cx="22702.8" cy="30702.8" r="200" /> 
</g>
<g style="fill:#FFFFFF; fill-opacity:1.0; 
stroke:#FFFFFF; stroke-width:39.3701; stroke-opacity:1; 
stroke-linecap:round; stroke-linejoin:round;">
</g>
<g style="fill:#FFFFFF; fill-opacity:1.0; 
stroke:#FFFFFF; stroke-width:0; stroke-opacity:1; 
stroke-linecap:round; stroke-linejoin:round;">
<circle cx="21702.8" cy="27702.8" r="200" /> 
</g>
<g style="fill:#FFFFFF; fill-opacity:1.0; 
stroke:#FFFFFF; stroke-width:39.3701; stroke-opacity:1; 
stroke-linecap:round; stroke-linejoin:round;">
</g>
<g style="fill:#FFFFFF; fill-opacity:1.0; 
stroke:#FFFFFF; stroke-width:0; stroke-opacity:1; 
stroke-linecap:round; stroke-linejoin:round;">
<circle cx="22702.8" cy="27702.8" r="200" /> 
</g>
<g style="fill:#FFFFFF; fill-opacity:1.0; 
stroke:#FFFFFF; stroke-width:39.3701; stroke-opacity:1; 
stroke-linecap:round; stroke-linejoin:round;">
</g>
<g style="fill:#FFFFFF; fill-opacity:1.0; 
stroke:#FFFFFF; stroke-width:0; stroke-opacity:1; 
stroke-linecap:round; stroke-linejoin:round;">
<circle cx="30805.1" cy="25360.2" r="196.85" /> 
</g>
<g style="fill:#FFFFFF; fill-opacity:1.0; 
stroke:#FFFFFF; stroke-width:39.3701; stroke-opacity:1; 
stroke-linecap:round; stroke-linejoin:round;">
</g>
<g style="fill:#FFFFFF; fill-opacity:1.0; 
stroke:#FFFFFF; stroke-width:0; stroke-opacity:1; 
stroke-linecap:round; stroke-linejoin:round;">
<circle cx="30805.1" cy="28360.2" r="196.85" /> 
</g>
<g style="fill:#FFFFFF; fill-opacity:1.0; 
stroke:#FFFFFF; stroke-width:39.3701; stroke-opacity:1; 
stroke-linecap:round; stroke-linejoin:round;">
</g>
<g style="fill:#FFFFFF; fill-opacity:1.0; 
stroke:#FFFFFF; stroke-width:0; stroke-opacity:1; 
stroke-linecap:round; stroke-linejoin:round;">
<circle cx="19663.4" cy="28982.3" r="196.85" /> 
</g>
<g style="fill:#FFFFFF; fill-opacity:1.0; 
stroke:#FFFFFF; stroke-width:39.3701; stroke-opacity:1; 
stroke-linecap:round; stroke-linejoin:round;">
</g>
<g style="fill:#FFFFFF; fill-opacity:1.0; 
stroke:#FFFFFF; stroke-width:0; stroke-opacity:1; 
stroke-linecap:round; stroke-linejoin:round;">
<circle cx="19663.4" cy="31982.3" r="196.85" /> 
</g>
<g style="fill:#FFFFFF; fill-opacity:1.0; 
stroke:#FFFFFF; stroke-width:39.3701; stroke-opacity:1; 
stroke-linecap:round; stroke-linejoin:round;">
</g>
<g style="fill:#FFFFFF; fill-opacity:1.0; 
stroke:#FFFFFF; stroke-width:0; stroke-opacity:1; 
stroke-linecap:round; stroke-linejoin:round;">
<circle cx="31041.3" cy="31269.7" r="787.402" /> 
</g>
<g style="fill:#FFFFFF; fill-opacity:1.0; 
stroke:#FFFFFF; stroke-width:39.3701; stroke-opacity:1; 
stroke-linecap:round; stroke-linejoin:round;">
</g>
<g style="fill:#FFFFFF; fill-opacity:1.0; 
stroke:#FFFFFF; stroke-width:0; stroke-opacity:1; 
stroke-linecap:round; stroke-linejoin:round;">
<circle cx="31041.3" cy="2923.23" r="787.402" /> 
</g>
<g style="fill:#FFFFFF; fill-opacity:1.0; 
stroke:#FFFFFF; stroke-width:39.3701; stroke-opacity:1; 
stroke-linecap:round; stroke-linejoin:round;">
</g>
<g style="fill:#FFFFFF; fill-opacity:1.0; 
stroke:#FFFFFF; stroke-width:0; stroke-opacity:1; 
stroke-linecap:round; stroke-linejoin:round;">
<circle cx="2694.89" cy="31269.7" r="787.402" /> 
</g>
<g style="fill:#FFFFFF; fill-opacity:1.0; 
stroke:#FFFFFF; stroke-width:39.3701; stroke-opacity:1; 
stroke-linecap:round; stroke-linejoin:round;">
</g>
<g style="fill:#FFFFFF; fill-opacity:1.0; 
stroke:#FFFFFF; stroke-width:0; stroke-opacity:1; 
stroke-linecap:round; stroke-linejoin:round;">
<circle cx="2694.89" cy="2923.23" r="787.402" /> 
</g>
<g style="fill:#FFFFFF; fill-opacity:1.0; 
stroke:#FFFFFF; stroke-width:39.3701; stroke-opacity:1; 
stroke-linecap:round; stroke-linejoin:round;">
</g>
<g style="fill:#000000; fill-opacity:1.0; 
stroke:#000000; stroke-width:39.3701; stroke-opacity:1; 
stroke-linecap:round; stroke-linejoin:round;">
</g> 
</svg>
